<?xml version="1.0" encoding="UTF-8"?>
<svg xmlns="http://www.w3.org/2000/svg" xmlns:xlink="http://www.w3.org/1999/xlink" width="95px" height="95px" viewBox="0 0 95 95" version="1.1">
<g id="surface1">
<path style=" stroke:none;fill-rule:nonzero;fill:rgb(75.294118%,75.294118%,75.294118%);fill-opacity:1;" d="M 50.675781 22.035156 C 53.488281 22.035156 55.769531 19.753906 55.769531 16.941406 C 55.769531 14.128906 53.488281 11.847656 50.675781 11.847656 C 47.863281 11.847656 45.582031 14.128906 45.582031 16.941406 C 45.582031 19.753906 47.867188 22.035156 50.675781 22.035156 Z M 50.675781 22.035156 "/>
<path style=" stroke:none;fill-rule:nonzero;fill:rgb(75.294118%,75.294118%,75.294118%);fill-opacity:1;" d="M 50.675781 25.601562 C 42.097656 25.601562 34.335938 29.109375 28.75 34.765625 L 72.601562 34.765625 C 67.015625 29.109375 59.257812 25.601562 50.675781 25.601562 Z M 50.675781 25.601562 "/>
<path style=" stroke:none;fill-rule:nonzero;fill:rgb(75.294118%,75.294118%,75.294118%);fill-opacity:1;" d="M 94.984375 45.269531 L 94.804688 42.152344 L 77.988281 42.152344 C 77.289062 40.820312 76.496094 39.542969 75.621094 38.332031 L 25.734375 38.332031 C 24.152344 40.507812 22.855469 42.894531 21.878906 45.445312 L 10.695312 34.257812 L 0 33.238281 C 2.070312 33.652344 13.230469 50.566406 20.070312 59.886719 C 21.824219 74.742188 34.855469 83.152344 50.675781 83.152344 C 62.710938 83.152344 73.128906 78.285156 78.199219 69.417969 C 81.949219 68.425781 84.988281 66.722656 87.316406 64.636719 C 89.148438 63.003906 90.550781 61.15625 91.609375 59.300781 C 93.195312 56.511719 94.027344 53.695312 94.476562 51.339844 C 94.929688 48.984375 95 47.074219 95 46.058594 C 95 45.605469 94.984375 45.324219 94.984375 45.269531 Z M 87.957031 50.183594 C 87.683594 51.578125 87.234375 53.152344 86.535156 54.691406 C 86.007812 55.847656 85.335938 56.980469 84.492188 58.03125 C 83.59375 59.144531 82.5 60.160156 81.128906 61.035156 C 81.367188 59.5625 81.488281 58.019531 81.488281 56.410156 C 81.488281 53.773438 81.152344 51.214844 80.527344 48.773438 L 88.1875 48.773438 C 88.128906 49.214844 88.054688 49.6875 87.957031 50.183594 Z M 87.957031 50.183594 "/>
</g>
</svg>
